<svg width="151" height="81" viewBox="0 0 151 81" fill="none" xmlns="http://www.w3.org/2000/svg">
<g clip-path="url(#clip0_428_15363)">
<path d="M38.9212 3.2771H34.9023V3.9566H38.9212V3.2771Z" stroke="#118BDD" stroke-miterlimit="10"/>
<path d="M39.6896 3.95508H34.1367V4.63457H39.6896V3.95508Z" stroke="#118BDD" stroke-miterlimit="10"/>
<path d="M38.9212 4.63452H34.9023V6.90394H38.9212V4.63452Z" stroke="#118BDD" stroke-miterlimit="10"/>
<path d="M38.9212 6.90356H34.9023V7.62417H38.9212V6.90356Z" stroke="#118BDD" stroke-miterlimit="10"/>
<path d="M40.1933 7.6228H33.6328V8.34341H40.1933V7.6228Z" stroke="#118BDD" stroke-miterlimit="10"/>
<path d="M40.1933 8.34326H33.6328V9.06386H40.1933V8.34326Z" stroke="#118BDD" stroke-miterlimit="10"/>
<path d="M40.1933 9.06372H33.6328V12.2116H40.1933V9.06372Z" stroke="#118BDD" stroke-miterlimit="10"/>
<path d="M40.1933 12.2114H33.6328V12.9417H40.1933V12.2114Z" stroke="#118BDD" stroke-miterlimit="10"/>
<path d="M50.5307 12.9417H20.8027V13.9089H50.5307V12.9417Z" stroke="#118BDD" stroke-miterlimit="10"/>
<path d="M88.5659 38.8535H45.9941V40.0263H88.5659V38.8535Z" stroke="#118BDD" stroke-miterlimit="10"/>
<path d="M25.5978 38.8535H7.42529V40.0263H25.5978V38.8535Z" stroke="#118BDD" stroke-miterlimit="10"/>
<path d="M132.855 76.2854H7.42529V77.4582H132.855V76.2854Z" stroke="#118BDD" stroke-miterlimit="10"/>
<path d="M25.5974 13.9087H20.8027V14.8759H25.5974V13.9087Z" stroke="#118BDD" stroke-miterlimit="10"/>
<path d="M50.5307 13.9087H45.9941V14.8759H50.5307V13.9087Z" stroke="#118BDD" stroke-miterlimit="10"/>
<path d="M32.8835 12.4583H29.8281V12.9419H32.8835V12.4583Z" stroke="#118BDD" stroke-miterlimit="10"/>
<path d="M32.1431 13.9209H30.5625V14.4045H32.1431V13.9209Z" stroke="#118BDD" stroke-miterlimit="10"/>
<path d="M32.595 14.6221H30.1089V15.3523H32.595V14.6221Z" stroke="#118BDD" stroke-miterlimit="10"/>
<path d="M32.0081 11.8574H30.6958V12.9432H32.0081V11.8574Z" stroke="#118BDD" stroke-miterlimit="10"/>
<path d="M36.9126 0.453125V8.3433" stroke="#118BDD" stroke-miterlimit="10"/>
<path d="M36.9126 10.1445V11.379" stroke="#118BDD" stroke-miterlimit="10"/>
<path d="M31.3545 10.4067V16.6359" stroke="#118BDD" stroke-miterlimit="10"/>
<path d="M36.9126 12.8364V19.82" stroke="#118BDD" stroke-miterlimit="10"/>
<path d="M31.3545 18.1445V19.3463" stroke="#118BDD" stroke-miterlimit="10"/>
<path d="M30.3774 15.3521V69.1254C30.3774 69.1254 31.4391 70.8613 32.4681 71.1236H33.2565" stroke="#118BDD" stroke-miterlimit="10"/>
<path d="M32.3833 15.3521V68.8775C32.3833 68.8775 32.7158 69.3115 32.9652 69.4578H33.2788" stroke="#118BDD" stroke-miterlimit="10"/>
<path d="M35.1758 13.9087V68.4907" stroke="#118BDD" stroke-miterlimit="10"/>
<path d="M38.6919 13.9087V68.4907" stroke="#118BDD" stroke-miterlimit="10"/>
<path d="M31.3545 20.7993V27.3126" stroke="#118BDD" stroke-miterlimit="10"/>
<path d="M31.3545 28.5515V29.7533" stroke="#118BDD" stroke-miterlimit="10"/>
<path d="M31.3545 31.2051V37.7184" stroke="#118BDD" stroke-miterlimit="10"/>
<path d="M31.3545 38.9343V40.1361" stroke="#118BDD" stroke-miterlimit="10"/>
<path d="M31.3545 41.5891V48.1024" stroke="#118BDD" stroke-miterlimit="10"/>
<path d="M31.3545 49.3269V50.5287" stroke="#118BDD" stroke-miterlimit="10"/>
<path d="M31.3545 51.9814V58.4935" stroke="#118BDD" stroke-miterlimit="10"/>
<path d="M31.3545 59.7097V60.9115" stroke="#118BDD" stroke-miterlimit="10"/>
<path d="M36.9126 21.3032V22.5788" stroke="#118BDD" stroke-miterlimit="10"/>
<path d="M36.9126 24.1211V31.0333" stroke="#118BDD" stroke-miterlimit="10"/>
<path d="M36.9087 32.4285V33.6254" stroke="#118BDD" stroke-miterlimit="10"/>
<path d="M36.9126 34.8352V42.0798" stroke="#118BDD" stroke-miterlimit="10"/>
<path d="M36.9126 43.2935V44.569" stroke="#118BDD" stroke-miterlimit="10"/>
<path d="M36.9126 45.9553V52.9449" stroke="#118BDD" stroke-miterlimit="10"/>
<path d="M36.9126 54.4004V55.6228" stroke="#118BDD" stroke-miterlimit="10"/>
<path d="M36.9126 57.072V64.0556" stroke="#118BDD" stroke-miterlimit="10"/>
<path d="M36.9126 68.1958V75.1805" stroke="#118BDD" stroke-miterlimit="10"/>
<path d="M36.9126 65.5532V66.7103" stroke="#118BDD" stroke-miterlimit="10"/>
<path d="M31.3545 62.3643V69.048C31.3545 69.048 32.1051 70.0199 32.5144 70.2206H33.2777" stroke="#118BDD" stroke-miterlimit="10"/>
<path d="M21.6704 13.909L22.6654 12.9539" stroke="#118BDD" stroke-miterlimit="10"/>
<path d="M23.6353 13.909L24.6302 12.9539" stroke="#118BDD" stroke-miterlimit="10"/>
<path d="M24.6302 14.8712L23.6353 13.9148" stroke="#118BDD" stroke-miterlimit="10"/>
<path d="M22.6654 14.8712L21.6704 13.9148" stroke="#118BDD" stroke-miterlimit="10"/>
<path d="M25.5991 13.909L26.5953 12.9539" stroke="#118BDD" stroke-miterlimit="10"/>
<path d="M25.5991 16.4293L26.5953 15.4729" stroke="#118BDD" stroke-miterlimit="10"/>
<path d="M25.5991 18.9486L26.5953 17.9922" stroke="#118BDD" stroke-miterlimit="10"/>
<path d="M25.5991 21.4678L26.5953 20.5115" stroke="#118BDD" stroke-miterlimit="10"/>
<path d="M25.5991 29.0257L26.5953 28.0693" stroke="#118BDD" stroke-miterlimit="10"/>
<path d="M25.5991 31.5448L26.5953 30.5884" stroke="#118BDD" stroke-miterlimit="10"/>
<path d="M25.5991 34.064L26.5953 33.1077" stroke="#118BDD" stroke-miterlimit="10"/>
<path d="M25.5991 36.5833L26.5953 35.627" stroke="#118BDD" stroke-miterlimit="10"/>
<path d="M25.5991 39.1026L26.5953 38.1462" stroke="#118BDD" stroke-miterlimit="10"/>
<path d="M27.5635 13.909L28.5584 12.9539" stroke="#118BDD" stroke-miterlimit="10"/>
<path d="M29.5269 13.909L30.5231 12.9539" stroke="#118BDD" stroke-miterlimit="10"/>
<path d="M31.4917 13.909L32.4867 12.9539" stroke="#118BDD" stroke-miterlimit="10"/>
<path d="M33.4551 13.909L34.4513 12.9539" stroke="#118BDD" stroke-miterlimit="10"/>
<path d="M35.4199 13.909L36.4149 12.9539" stroke="#118BDD" stroke-miterlimit="10"/>
<path d="M37.3848 13.909L38.3797 12.9539" stroke="#118BDD" stroke-miterlimit="10"/>
<path d="M39.3481 13.909L40.3444 12.9539" stroke="#118BDD" stroke-miterlimit="10"/>
<path d="M41.313 13.909L42.3079 12.9539" stroke="#118BDD" stroke-miterlimit="10"/>
<path d="M43.2764 13.909L44.2726 12.9539" stroke="#118BDD" stroke-miterlimit="10"/>
<path d="M45.2412 13.909L46.2362 12.9539" stroke="#118BDD" stroke-miterlimit="10"/>
<path d="M47.2046 13.909L48.2008 12.9539" stroke="#118BDD" stroke-miterlimit="10"/>
<path d="M49.1694 13.909L50.1644 12.9539" stroke="#118BDD" stroke-miterlimit="10"/>
<path d="M47.2046 13.9148L48.2008 14.8712" stroke="#118BDD" stroke-miterlimit="10"/>
<path d="M49.1694 13.9148L50.1644 14.8712" stroke="#118BDD" stroke-miterlimit="10"/>
<path d="M26.5989 13.9209H25.5977V23.5699H26.5989V13.9209Z" stroke="#118BDD" stroke-miterlimit="10"/>
<path d="M44.9956 15.472L45.9906 14.5168" stroke="#118BDD" stroke-miterlimit="10"/>
<path d="M44.9956 17.9925L45.9906 17.0374" stroke="#118BDD" stroke-miterlimit="10"/>
<path d="M44.9956 20.513L45.9906 19.5579" stroke="#118BDD" stroke-miterlimit="10"/>
<path d="M44.9956 23.0333L45.9906 22.0769" stroke="#118BDD" stroke-miterlimit="10"/>
<path d="M44.9956 25.5538L45.9906 24.5974" stroke="#118BDD" stroke-miterlimit="10"/>
<path d="M44.9956 28.0731L45.9906 27.1179" stroke="#118BDD" stroke-miterlimit="10"/>
<path d="M44.9956 33.1139L45.9906 32.1587" stroke="#118BDD" stroke-miterlimit="10"/>
<path d="M44.9956 35.6344L45.9906 34.6792" stroke="#118BDD" stroke-miterlimit="10"/>
<path d="M44.9956 38.1549L45.9906 37.1985" stroke="#118BDD" stroke-miterlimit="10"/>
<path d="M45.9954 13.9209H44.9941V40.026H45.9954V13.9209Z" stroke="#118BDD" stroke-miterlimit="10"/>
<path d="M26.5989 28.1758H25.5977V40.0056H26.5989V28.1758Z" stroke="#118BDD" stroke-miterlimit="10"/>
<path d="M25.5977 30.3396H30.3772" stroke="#118BDD" stroke-miterlimit="10"/>
<path d="M32.4795 30.3396H35.176" stroke="#118BDD" stroke-miterlimit="10"/>
<path d="M38.6606 30.3396H45.9944" stroke="#118BDD" stroke-miterlimit="10"/>
<path d="M26.5989 40.0054C26.5989 40.0054 29.3621 40.7514 30.3772 40.8541V41.4816C30.3772 41.4816 27.9604 41.0706 25.5977 40.0054H26.5989Z" stroke="#118BDD" stroke-miterlimit="10" stroke-linejoin="bevel"/>
<path d="M32.3833 41.1116C32.3833 41.1116 33.4387 41.3485 35.1755 41.3897V41.9555C35.1755 41.9555 33.2888 42.0172 32.3833 41.6569V41.1116Z" stroke="#118BDD" stroke-miterlimit="10"/>
<path d="M38.6919 41.2448C38.6919 41.2448 42.1314 40.9571 44.9942 40.0249H45.9954C45.9954 40.0249 44.2234 41.1989 38.6932 41.749V41.2448H38.6919Z" stroke="#118BDD" stroke-miterlimit="10" stroke-linecap="square" stroke-linejoin="round"/>
<path d="M26.599 23.5701H21.3169V28.1758H26.599V23.5701Z" stroke="#118BDD" stroke-miterlimit="10" stroke-linecap="square"/>
<path d="M21.3182 22.1653H20.5298V29.5804H21.3182V22.1653Z" stroke="#118BDD" stroke-miterlimit="10" stroke-linecap="square"/>
<path d="M20.5296 22.1653H19.7412V29.5804H20.5296V22.1653Z" stroke="#118BDD" stroke-miterlimit="10" stroke-linecap="square"/>
<path d="M26.5989 23.5701H23.2891V24.2907H26.5989V23.5701Z" stroke="#118BDD" stroke-miterlimit="10" stroke-linecap="square"/>
<path d="M26.5989 27.4551H23.2891V28.1757H26.5989V27.4551Z" stroke="#118BDD" stroke-miterlimit="10" stroke-linecap="square"/>
<path d="M27.862 25.9973H16.7827" stroke="#118BDD" stroke-miterlimit="10" stroke-linecap="square" stroke-linejoin="round"/>
<path d="M23.289 24.2905C23.289 24.2905 23.2462 25.23 23.7449 25.9977" stroke="#118BDD" stroke-miterlimit="10"/>
<path d="M23.289 27.7397C23.289 27.7397 23.2462 26.8002 23.7449 26.0325" stroke="#118BDD" stroke-miterlimit="10"/>
<path d="M23.8735 23.5701L24.5007 24.2907" stroke="#118BDD" stroke-miterlimit="10"/>
<path d="M25.7842 23.5701L26.4114 24.2907" stroke="#118BDD" stroke-miterlimit="10"/>
<path d="M23.8735 27.4551L24.5007 28.1757" stroke="#118BDD" stroke-miterlimit="10"/>
<path d="M25.7842 27.4551L26.4114 28.1757" stroke="#118BDD" stroke-miterlimit="10"/>
<path d="M45.9941 39.1943L46.8468 40.0129" stroke="#118BDD" stroke-miterlimit="10"/>
<path d="M48.1353 38.8535L49.3922 40.0614" stroke="#118BDD" stroke-miterlimit="10"/>
<path d="M50.8154 38.8535L52.0724 40.0614" stroke="#118BDD" stroke-miterlimit="10"/>
<path d="M53.4956 38.8535L54.7525 40.0614" stroke="#118BDD" stroke-miterlimit="10"/>
<path d="M56.1128 38.8535L57.371 40.0614" stroke="#118BDD" stroke-miterlimit="10"/>
<path d="M58.7188 38.8535L59.9757 40.0614" stroke="#118BDD" stroke-miterlimit="10"/>
<path d="M61.3706 38.8535L62.6288 40.0614" stroke="#118BDD" stroke-miterlimit="10"/>
<path d="M64.0562 38.8535L65.3143 40.0614" stroke="#118BDD" stroke-miterlimit="10"/>
<path d="M66.6519 38.8535L67.9088 40.0614" stroke="#118BDD" stroke-miterlimit="10"/>
<path d="M69.2715 38.8535L70.5297 40.0614" stroke="#118BDD" stroke-miterlimit="10"/>
<path d="M71.8281 38.8535L73.085 40.0614" stroke="#118BDD" stroke-miterlimit="10"/>
<path d="M74.4966 38.8535L75.7548 40.0614" stroke="#118BDD" stroke-miterlimit="10"/>
<path d="M77.1655 38.8535L78.4237 40.0614" stroke="#118BDD" stroke-miterlimit="10"/>
<path d="M79.7598 38.8535L81.018 40.0614" stroke="#118BDD" stroke-miterlimit="10"/>
<path d="M82.4072 38.8535L83.6654 40.0614" stroke="#118BDD" stroke-miterlimit="10"/>
<path d="M85.0259 38.8535L86.2841 40.0614" stroke="#118BDD" stroke-miterlimit="10"/>
<path d="M87.6011 38.8535L88.5243 39.7398" stroke="#118BDD" stroke-miterlimit="10"/>
<path d="M89.552 19.9688H88.5444V40.0248H89.552V19.9688Z" stroke="#118BDD" stroke-miterlimit="10"/>
<path d="M88.5444 21.625L89.5747 20.636" stroke="#118BDD" stroke-miterlimit="10"/>
<path d="M88.5444 24.177L89.5747 23.188" stroke="#118BDD" stroke-miterlimit="10"/>
<path d="M88.5444 26.7288L89.5747 25.7397" stroke="#118BDD" stroke-miterlimit="10"/>
<path d="M88.5444 29.2795L89.5747 28.2905" stroke="#118BDD" stroke-miterlimit="10"/>
<path d="M88.5444 31.8313L89.5747 30.8423" stroke="#118BDD" stroke-miterlimit="10"/>
<path d="M88.5444 34.3833L89.5747 33.3943" stroke="#118BDD" stroke-miterlimit="10"/>
<path d="M88.5444 36.9341L89.5747 35.9451" stroke="#118BDD" stroke-miterlimit="10"/>
<path d="M88.5444 39.4858L89.5747 38.4968" stroke="#118BDD" stroke-miterlimit="10"/>
<path d="M88.5444 14.9895V19.9688" stroke="#118BDD" stroke-miterlimit="10"/>
<path d="M98.8606 13.9355H83.7637V14.9076H98.8606V13.9355Z" stroke="#118BDD" stroke-miterlimit="10"/>
<path d="M98.8606 12.9622H83.7637V13.9342H98.8606V12.9622Z" stroke="#118BDD" stroke-miterlimit="10"/>
<path d="M115.503 13.9355H100.406V14.9076H115.503V13.9355Z" stroke="#118BDD" stroke-miterlimit="10"/>
<path d="M115.503 12.9622H100.406V13.9342H115.503V12.9622Z" stroke="#118BDD" stroke-miterlimit="10"/>
<path d="M100.406 6.4563H98.8608V14.9074H100.406V6.4563Z" stroke="#118BDD" stroke-miterlimit="10"/>
<path d="M100.142 4.76367H99.1343V6.45636H100.142V4.76367Z" stroke="#118BDD" stroke-miterlimit="10"/>
<path d="M99.6343 1.71753V10.9362" stroke="#118BDD" stroke-miterlimit="10"/>
<path d="M99.6343 12.3965V13.591" stroke="#118BDD" stroke-miterlimit="10"/>
<path d="M99.6377 14.9072V22.0878" stroke="#118BDD" stroke-miterlimit="10"/>
<path d="M98.5562 17.2939V14.9072" stroke="#118BDD" stroke-miterlimit="10"/>
<path d="M100.678 14.9072V16.6979" stroke="#118BDD" stroke-miterlimit="10"/>
<path d="M110.742 14.9072V40.0102" stroke="#118BDD" stroke-miterlimit="10"/>
<path d="M110.743 17.2935H109.682V40.009H110.743V17.2935Z" stroke="#118BDD" stroke-miterlimit="10"/>
<path d="M109.682 19.0333L110.702 18.0527" stroke="#118BDD" stroke-miterlimit="10"/>
<path d="M109.682 21.5404L110.702 20.561" stroke="#118BDD" stroke-miterlimit="10"/>
<path d="M109.682 24.0489L110.702 23.0684" stroke="#118BDD" stroke-miterlimit="10"/>
<path d="M109.682 26.556L110.702 25.5767" stroke="#118BDD" stroke-miterlimit="10"/>
<path d="M109.682 29.0643L110.702 28.0837" stroke="#118BDD" stroke-miterlimit="10"/>
<path d="M109.682 31.5714L110.702 30.5908" stroke="#118BDD" stroke-miterlimit="10"/>
<path d="M109.682 34.0799L110.702 33.0994" stroke="#118BDD" stroke-miterlimit="10"/>
<path d="M109.682 36.587L110.702 35.6064" stroke="#118BDD" stroke-miterlimit="10"/>
<path d="M109.682 39.0953L110.702 38.1147" stroke="#118BDD" stroke-miterlimit="10"/>
<path d="M88.5444 30.3806H110.742" stroke="#118BDD" stroke-miterlimit="10"/>
<path d="M93.1365 10.5447H92.333V12.9628H93.1365V10.5447Z" stroke="#118BDD" stroke-miterlimit="10"/>
<path d="M106.964 10.5447H106.161V12.9628H106.964V10.5447Z" stroke="#118BDD" stroke-miterlimit="10"/>
<path d="M99.6343 23.6824V24.9483" stroke="#118BDD" stroke-miterlimit="10"/>
<path d="M99.6343 26.2344V33.3847" stroke="#118BDD" stroke-miterlimit="10"/>
<path d="M99.6343 34.8667V36.0975" stroke="#118BDD" stroke-miterlimit="10"/>
<path d="M99.6343 37.5405V44.5374" stroke="#118BDD" stroke-miterlimit="10"/>
<path d="M108.475 18.5422H105.662V19.0017H108.475V18.5422Z" stroke="#118BDD" stroke-miterlimit="10"/>
<path d="M108.475 22.9062H105.662V23.3657H108.475V22.9062Z" stroke="#118BDD" stroke-miterlimit="10"/>
<path d="M108.475 27.4988H105.662V27.9582H108.475V27.4988Z" stroke="#118BDD" stroke-miterlimit="10"/>
<path d="M108.475 31.8264H105.662V32.2859H108.475V31.8264Z" stroke="#118BDD" stroke-miterlimit="10"/>
<path d="M108.475 36.4563H105.662V36.9157H108.475V36.4563Z" stroke="#118BDD" stroke-miterlimit="10"/>
<path d="M89.5522 19.9689H90.4528C90.4528 19.9689 90.9087 19.6606 91.3129 19.6812C91.3129 19.6812 91.7815 19.4962 92.5321 19.4962C92.5321 19.4962 92.789 19.229 93.2613 19.2085C93.7323 19.1879 94.0333 18.5581 94.4187 18.5436C94.8041 18.5291 94.7827 18.262 95.1694 18.262C95.556 18.262 95.4855 18.0383 95.9679 18.0383C96.4502 18.0383 96.2172 17.7603 96.4905 17.7603C96.7638 17.7603 96.949 17.2949 97.3671 17.2949C97.7852 17.2949 98.7815 17.2949 98.7815 17.2949L99.6391 16.8428H100.679L101.708 17.1208C101.708 17.1208 101.989 17.2961 102.488 17.2961C102.987 17.2961 103.252 17.0096 103.745 16.9056C104.035 16.844 104.356 17.0398 104.634 17.0398C105.203 17.0398 105.45 17.0398 106.349 17.0398C106.572 17.0398 106.807 16.9673 107.025 16.9673C107.484 16.9673 107.858 17.0241 108.22 17.0362C108.808 17.0567 108.873 17.0241 109.152 17.0821C109.43 17.1401 109.682 17.4387 109.682 17.4387L110.744 17.7071" stroke="#118BDD" stroke-miterlimit="10"/>
<path d="M99.6341 22.088C100.433 22.088 101.081 21.4661 101.081 20.699C101.081 19.9319 100.433 19.3101 99.6341 19.3101C98.8349 19.3101 98.187 19.9319 98.187 20.699C98.187 21.4661 98.8349 22.088 99.6341 22.088Z" stroke="#118BDD" stroke-miterlimit="10"/>
<path d="M99.6339 22.7503C100.814 22.7503 101.771 21.8318 101.771 20.6989C101.771 19.5659 100.814 18.6475 99.6339 18.6475C98.4535 18.6475 97.4966 19.5659 97.4966 20.6989C97.4966 21.8318 98.4535 22.7503 99.6339 22.7503Z" stroke="#118BDD" stroke-miterlimit="10"/>
<path d="M89.5522 40.026C89.5522 40.026 95.0534 41.9964 99.634 41.9964C104.215 41.9964 109.682 40.0103 109.682 40.0103H110.744C110.744 40.0103 106.179 42.6746 99.6353 42.6746C93.09 42.6746 88.5459 40.026 88.5459 40.026H89.5522Z" stroke="#118BDD" stroke-miterlimit="10"/>
<path d="M125.276 38.8474H110.742V40.0105H125.276V38.8474Z" stroke="#118BDD" stroke-miterlimit="10"/>
<path d="M134.421 38.8474H127.839V40.0105H134.421V38.8474Z" stroke="#118BDD" stroke-miterlimit="10"/>
<path d="M142.48 38.8474H138.129V40.0105H142.48V38.8474Z" stroke="#118BDD" stroke-miterlimit="10"/>
<path d="M111.268 38.8474L112.496 40.0263" stroke="#118BDD" stroke-miterlimit="10"/>
<path d="M113.942 38.8474L115.169 40.0263" stroke="#118BDD" stroke-miterlimit="10"/>
<path d="M116.616 38.8474L117.844 40.0263" stroke="#118BDD" stroke-miterlimit="10"/>
<path d="M119.292 38.8474L120.518 40.0263" stroke="#118BDD" stroke-miterlimit="10"/>
<path d="M121.965 38.8474L123.192 40.0263" stroke="#118BDD" stroke-miterlimit="10"/>
<path d="M129.714 38.8474L130.942 40.0263" stroke="#118BDD" stroke-miterlimit="10"/>
<path d="M132.343 38.8474L133.571 40.0263" stroke="#118BDD" stroke-miterlimit="10"/>
<path d="M138.115 39.2837L138.889 40.0261" stroke="#118BDD" stroke-miterlimit="10"/>
<path d="M140.199 38.8474L141.427 40.0263" stroke="#118BDD" stroke-miterlimit="10"/>
<path d="M124.639 38.8474L125.278 39.4604" stroke="#118BDD" stroke-miterlimit="10"/>
<path d="M125.845 37.8682H125.277V41.3787H125.845V37.8682Z" stroke="#118BDD" stroke-miterlimit="10"/>
<path d="M125.278 40.0103H124.841V44.9279H125.278V40.0103Z" stroke="#118BDD" stroke-miterlimit="10"/>
<path d="M128.276 40.0103H127.839V44.9279H128.276V40.0103Z" stroke="#118BDD" stroke-miterlimit="10"/>
<path d="M127.611 41.3787H127.174V43.6831H127.611V41.3787Z" stroke="#118BDD" stroke-miterlimit="10"/>
<path d="M127.079 41.3787H126.05V44.9279H127.079V41.3787Z" stroke="#118BDD" stroke-miterlimit="10"/>
<path d="M125.846 41.3787H125.409V43.6831H125.846V41.3787Z" stroke="#118BDD" stroke-miterlimit="10"/>
<path d="M126.564 37.6855H125.846V41.4922H126.564V37.6855Z" stroke="#118BDD" stroke-miterlimit="10"/>
<path d="M127.089 32.7983H126.14V37.6857H127.089V32.7983Z" stroke="#118BDD" stroke-miterlimit="10"/>
<path d="M127.839 30.3552H125.277V37.7679H127.839V30.3552Z" stroke="#118BDD" stroke-miterlimit="10"/>
<path d="M127.839 15.1743H125.277V30.3188H127.839V15.1743Z" stroke="#118BDD" stroke-miterlimit="10"/>
<path d="M127.174 37.6855H126.563V41.4922H127.174V37.6855Z" stroke="#118BDD" stroke-miterlimit="10"/>
<path d="M127.839 37.8682H127.174V41.3787H127.839V37.8682Z" stroke="#118BDD" stroke-miterlimit="10"/>
<path d="M126.614 31.9497V33.3921" stroke="#118BDD" stroke-miterlimit="10"/>
<path d="M126.614 34.6042V37.6856" stroke="#118BDD" stroke-miterlimit="10"/>
<path d="M126.559 15.1743V20.0919" stroke="#118BDD" stroke-miterlimit="10"/>
<path d="M126.559 21.5632V22.7469" stroke="#118BDD" stroke-miterlimit="10"/>
<path d="M126.614 23.9919V30.3553" stroke="#118BDD" stroke-miterlimit="10"/>
<path d="M125.277 15.4163L124.784 14.9435V14.4285H128.369V14.9689L127.847 15.4707" stroke="#118BDD" stroke-miterlimit="10"/>
<path d="M127.839 32.7983H128.826L131.13 37.5612V38.8474" stroke="#118BDD" stroke-miterlimit="10"/>
<path d="M125.277 32.7983H124.291L121.986 37.5612V38.8474" stroke="#118BDD" stroke-miterlimit="10"/>
<path d="M137.399 38.3542H135.921V45.3765H137.399V38.3542Z" stroke="#118BDD" stroke-miterlimit="10"/>
<path d="M136.66 46.2238V35.1133" stroke="#118BDD" stroke-miterlimit="10"/>
<path d="M135.921 38.8474H134.421V40.0103C134.421 40.0103 134.33 41.085 134.877 42.011C135.424 42.9369 134.604 43.1835 134.62 43.7856C134.637 44.3876 134.637 44.3876 134.637 44.3876C134.637 44.3876 135.295 44.9581 135.922 45.1129C136.55 45.2676 136.662 45.3752 136.662 45.3752C136.662 45.3752 138.023 45.5299 138.13 44.8808C138.237 44.2316 137.9 44.0007 137.883 43.4761C137.867 42.9514 138.398 42.2261 138.398 41.7946C138.398 41.363 138.13 40.7864 138.13 40.0091C138.13 39.2318 138.13 38.8462 138.13 38.8462H137.401" stroke="#118BDD" stroke-miterlimit="10"/>
<path d="M24.4678 38.8535L25.5534 39.8945" stroke="#118BDD" stroke-miterlimit="10"/>
<path d="M21.9365 38.8535L23.0209 39.8945" stroke="#118BDD" stroke-miterlimit="10"/>
<path d="M19.2715 38.8535L20.3559 39.8945" stroke="#118BDD" stroke-miterlimit="10"/>
<path d="M8.80176 38.8535L9.88614 39.8945" stroke="#118BDD" stroke-miterlimit="10"/>
<path d="M11.1719 38.8535V40.0261C11.1719 40.0261 11.493 41.4719 12.1681 42.0739C12.8432 42.6759 13.2613 42.9225 13.7122 42.9999C14.1631 43.0772 14.0824 43.1389 14.5157 43.1232C14.9502 43.1075 16.0598 42.5115 16.0749 41.4828C16.0913 40.454 17.6341 38.8547 17.6341 38.8547H11.1719V38.8535Z" stroke="#118BDD" stroke-miterlimit="10"/>
<path d="M13.1797 42.8186V38.625L13.4341 38.3809H14.6293L14.8447 38.5876V43.0652C14.8447 43.0652 14.5462 43.1885 14.0109 43.0652C13.4757 42.9406 13.1797 42.8186 13.1797 42.8186Z" stroke="#118BDD" stroke-miterlimit="10"/>
<path d="M14.0122 35.0674V43.0458" stroke="#118BDD" stroke-miterlimit="10"/>
<path d="M10.77 40.0259L3.59876 54.5261L2.60254 54.0329L9.54711 40.0054L10.77 40.0259Z" stroke="#118BDD" stroke-miterlimit="10"/>
<path d="M3.59876 54.5262V61.9038L2.60254 62.5517V54.033L3.59876 54.5262Z" stroke="#118BDD" stroke-miterlimit="10"/>
<path d="M3.59876 61.9038L10.6403 76.2855H9.32293L2.60254 62.5518L3.59876 61.9038Z" stroke="#118BDD" stroke-miterlimit="10"/>
<path d="M10.6406 48.9194V76.2854" stroke="#118BDD" stroke-miterlimit="10"/>
<path d="M10.6406 40.136V43.9306" stroke="#118BDD" stroke-miterlimit="10"/>
<path d="M0.447754 43.9307V48.9196H11.7349L13.7928 43.9307H0.447754Z" stroke="#118BDD" stroke-miterlimit="10"/>
<path d="M3.30165 48.4771H0.447754V48.9196H3.30165V48.4771Z" stroke="#118BDD" stroke-miterlimit="10"/>
<path d="M3.30165 43.9307H0.447754V44.3732H3.30165V43.9307Z" stroke="#118BDD" stroke-miterlimit="10"/>
<path d="M1.92134 44.373H1.39111V48.4771H1.92134V44.373Z" stroke="#118BDD" stroke-miterlimit="10"/>
<path d="M3.30185 44.373C3.30185 44.373 3.14946 45.7405 3.72754 46.3583" stroke="#118BDD" stroke-miterlimit="10"/>
<path d="M3.30185 48.4111C3.30185 48.4111 3.14946 47.0436 3.72754 46.4258" stroke="#118BDD" stroke-miterlimit="10"/>
<path d="M5.07747 46.3579H0.447754" stroke="#118BDD" stroke-miterlimit="10"/>
<path d="M8.3584 46.3579H12.7639" stroke="#118BDD" stroke-miterlimit="10"/>
<path d="M12.7637 46.3579L15.304 48.9859" stroke="#118BDD" stroke-miterlimit="10"/>
<path d="M11.687 48.9194L12.7638 50.0342" stroke="#118BDD" stroke-miterlimit="10"/>
<path d="M13.8809 43.9016L17.9186 47.9428" stroke="#118BDD" stroke-miterlimit="10"/>
<path d="M17.9186 47.9429L12.7637 50.0342V71.924H17.9186V47.9429ZM17.9186 47.9429V75.854H21.2637V74.7116L18.7763 69.5269L17.9186 69.5366" stroke="#118BDD" stroke-miterlimit="10"/>
<path d="M0.09375 58.2917H7.29651" stroke="#118BDD" stroke-miterlimit="10"/>
<path d="M8.90479 58.2917H10.362" stroke="#118BDD" stroke-miterlimit="10"/>
<path d="M11.6055 58.2917H19.1735" stroke="#118BDD" stroke-miterlimit="10"/>
<path d="M20.6948 58.2917H21.9392" stroke="#118BDD" stroke-miterlimit="10"/>
<path d="M23.5029 58.2917H30.7271" stroke="#118BDD" stroke-miterlimit="10"/>
<path d="M32.832 58.2917H33.7502" stroke="#118BDD" stroke-miterlimit="10"/>
<path d="M35.5723 58.2917H43.0974" stroke="#118BDD" stroke-miterlimit="10"/>
<path d="M44.6191 58.2917H45.8622" stroke="#118BDD" stroke-miterlimit="10"/>
<path d="M47.4062 58.2917H51.4151" stroke="#118BDD" stroke-miterlimit="10"/>
<path d="M53.9438 58.2917H54.9514" stroke="#118BDD" stroke-miterlimit="10"/>
<path d="M56.4741 58.2917H57.9955" stroke="#118BDD" stroke-miterlimit="10"/>
<path d="M60.1191 58.2917H66.7425" stroke="#118BDD" stroke-miterlimit="10"/>
<path d="M68.0283 58.2917H69.3369" stroke="#118BDD" stroke-miterlimit="10"/>
<path d="M71.0508 58.2917H77.9752" stroke="#118BDD" stroke-miterlimit="10"/>
<path d="M80.4199 58.2917H81.6202" stroke="#118BDD" stroke-miterlimit="10"/>
<path d="M82.9272 58.2917H90.7307" stroke="#118BDD" stroke-miterlimit="10"/>
<path d="M92.188 58.2917H93.4751" stroke="#118BDD" stroke-miterlimit="10"/>
<path d="M94.9966 58.2917H102.586" stroke="#118BDD" stroke-miterlimit="10"/>
<path d="M104.107 58.2917H105.072" stroke="#118BDD" stroke-miterlimit="10"/>
<path d="M106.873 58.2917H114.548" stroke="#118BDD" stroke-miterlimit="10"/>
<path d="M115.984 58.2917H117.42" stroke="#118BDD" stroke-miterlimit="10"/>
<path d="M118.686 58.2917H126.209" stroke="#118BDD" stroke-miterlimit="10"/>
<path d="M129.769 58.2917H138.321" stroke="#118BDD" stroke-miterlimit="10"/>
<path d="M139.844 58.2917H141.087" stroke="#118BDD" stroke-miterlimit="10"/>
<path d="M142.846 58.2917H150.177" stroke="#118BDD" stroke-miterlimit="10"/>
<path d="M15.5068 71.9238V67.4377" stroke="#118BDD" stroke-miterlimit="10"/>
<path d="M15.5068 66.2934V65.0723" stroke="#118BDD" stroke-miterlimit="10"/>
<path d="M15.5068 63.6518V58.4937" stroke="#118BDD" stroke-miterlimit="10"/>
<path d="M15.5068 56.8208V55.6274" stroke="#118BDD" stroke-miterlimit="10"/>
<path d="M15.507 54.1878V49.2182L15.3042 48.9861" stroke="#118BDD" stroke-miterlimit="10"/>
<path d="M39.6997 68.5803H34.1367V69.012H39.6997V68.5803Z" stroke="#118BDD" stroke-miterlimit="10"/>
<path d="M39.624 69.0117H34.2109V69.4434H39.624V69.0117Z" stroke="#118BDD" stroke-miterlimit="10"/>
<path d="M40.3962 69.5583H33.3975V70.0105H40.3962V69.5583Z" stroke="#118BDD" stroke-miterlimit="10"/>
<path d="M39.6997 70.0103H34.1367V70.7611H39.6997V70.0103Z" stroke="#118BDD" stroke-miterlimit="10"/>
<path d="M37.9429 71.7415H35.895V72.2118H37.9429V71.7415Z" stroke="#118BDD" stroke-miterlimit="10"/>
<path d="M37.7059 72.2249H36.1304V73.1582H37.7059V72.2249Z" stroke="#118BDD" stroke-miterlimit="10"/>
<path d="M38.4123 73.1582H35.4224V73.9199H38.4123V73.1582Z" stroke="#118BDD" stroke-miterlimit="10"/>
<path d="M40.439 70.749H33.3975V71.2459H40.439V70.749Z" stroke="#118BDD" stroke-miterlimit="10"/>
<path d="M40.439 71.2446H33.3975V71.7416H40.439V71.2446Z" stroke="#118BDD" stroke-miterlimit="10"/>
<path d="M8.26123 76.2854L9.49423 77.4691" stroke="#118BDD" stroke-miterlimit="10"/>
<path d="M11.0483 76.2854L12.2801 77.4691" stroke="#118BDD" stroke-miterlimit="10"/>
<path d="M13.7246 76.2854L14.9576 77.4691" stroke="#118BDD" stroke-miterlimit="10"/>
<path d="M16.2842 76.2854L17.5172 77.4691" stroke="#118BDD" stroke-miterlimit="10"/>
<path d="M18.9238 76.2854L20.1568 77.4691" stroke="#118BDD" stroke-miterlimit="10"/>
<path d="M21.4971 76.2854L22.7288 77.4691" stroke="#118BDD" stroke-miterlimit="10"/>
<path d="M24.0688 76.2854L25.3018 77.4691" stroke="#118BDD" stroke-miterlimit="10"/>
<path d="M26.7285 76.2854L27.9615 77.4691" stroke="#118BDD" stroke-miterlimit="10"/>
<path d="M29.3896 76.2854L30.6214 77.4691" stroke="#118BDD" stroke-miterlimit="10"/>
<path d="M32.0474 76.2854L33.2791 77.4691" stroke="#118BDD" stroke-miterlimit="10"/>
<path d="M34.7036 76.2854L35.9366 77.4691" stroke="#118BDD" stroke-miterlimit="10"/>
<path d="M37.3608 76.2854L38.5938 77.4691" stroke="#118BDD" stroke-miterlimit="10"/>
<path d="M40.0181 76.2854L41.2498 77.4691" stroke="#118BDD" stroke-miterlimit="10"/>
<path d="M42.6758 76.2854L43.9075 77.4691" stroke="#118BDD" stroke-miterlimit="10"/>
<path d="M45.333 76.2854L46.5647 77.4691" stroke="#118BDD" stroke-miterlimit="10"/>
<path d="M47.9907 76.2854L49.2225 77.4691" stroke="#118BDD" stroke-miterlimit="10"/>
<path d="M50.5005 76.2854L51.7322 77.4691" stroke="#118BDD" stroke-miterlimit="10"/>
<path d="M53.2085 76.2854L54.4415 77.4691" stroke="#118BDD" stroke-miterlimit="10"/>
<path d="M55.77 76.2854L57.003 77.4691" stroke="#118BDD" stroke-miterlimit="10"/>
<path d="M58.5132 76.2854L59.7449 77.4691" stroke="#118BDD" stroke-miterlimit="10"/>
<path d="M61.0649 76.2854L62.2967 77.4691" stroke="#118BDD" stroke-miterlimit="10"/>
<path d="M63.6519 76.2854L64.8836 77.4691" stroke="#118BDD" stroke-miterlimit="10"/>
<path d="M66.2388 76.2854L67.4718 77.4691" stroke="#118BDD" stroke-miterlimit="10"/>
<path d="M68.8257 76.2854L70.0587 77.4691" stroke="#118BDD" stroke-miterlimit="10"/>
<path d="M71.4136 76.2854L72.6453 77.4691" stroke="#118BDD" stroke-miterlimit="10"/>
<path d="M74.0005 76.2854L75.2322 77.4691" stroke="#118BDD" stroke-miterlimit="10"/>
<path d="M76.7109 76.2854L77.9439 77.4691" stroke="#118BDD" stroke-miterlimit="10"/>
<path d="M79.2588 76.2854L80.4905 77.4691" stroke="#118BDD" stroke-miterlimit="10"/>
<path d="M82.0659 76.2854L83.2977 77.4691" stroke="#118BDD" stroke-miterlimit="10"/>
<path d="M84.7764 76.2854L86.0094 77.4691" stroke="#118BDD" stroke-miterlimit="10"/>
<path d="M87.2119 76.2854L88.4449 77.4691" stroke="#118BDD" stroke-miterlimit="10"/>
<path d="M89.8091 76.2854L91.0421 77.4691" stroke="#118BDD" stroke-miterlimit="10"/>
<path d="M92.5181 76.2854L93.7511 77.4691" stroke="#118BDD" stroke-miterlimit="10"/>
<path d="M95.2271 76.2854L96.46 77.4691" stroke="#118BDD" stroke-miterlimit="10"/>
<path d="M97.936 76.2854L99.169 77.4691" stroke="#118BDD" stroke-miterlimit="10"/>
<path d="M100.55 76.2854L101.782 77.4691" stroke="#118BDD" stroke-miterlimit="10"/>
<path d="M103.002 76.2854L104.234 77.4691" stroke="#118BDD" stroke-miterlimit="10"/>
<path d="M105.686 76.2854L106.919 77.4691" stroke="#118BDD" stroke-miterlimit="10"/>
<path d="M108.275 76.2808L109.507 77.4644" stroke="#118BDD" stroke-miterlimit="10"/>
<path d="M110.945 76.2808L112.177 77.4644" stroke="#118BDD" stroke-miterlimit="10"/>
<path d="M113.615 76.2808L114.848 77.4644" stroke="#118BDD" stroke-miterlimit="10"/>
<path d="M116.285 76.2808L117.518 77.4644" stroke="#118BDD" stroke-miterlimit="10"/>
<path d="M118.949 76.2866L120.182 77.4691" stroke="#118BDD" stroke-miterlimit="10"/>
<path d="M121.398 76.2866L122.63 77.4691" stroke="#118BDD" stroke-miterlimit="10"/>
<path d="M123.999 76.2866L125.232 77.4691" stroke="#118BDD" stroke-miterlimit="10"/>
<path d="M126.664 76.2866L127.897 77.4691" stroke="#118BDD" stroke-miterlimit="10"/>
<path d="M129.308 76.2866L130.539 77.4691" stroke="#118BDD" stroke-miterlimit="10"/>
<path d="M131.964 76.2866L132.851 77.139" stroke="#118BDD" stroke-miterlimit="10"/>
<path d="M14.7134 77.458H13.2134V79.1664H14.7134V77.458Z" stroke="#118BDD" stroke-miterlimit="10"/>
<path d="M137.4 77.458H135.9V79.1664H137.4V77.458Z" stroke="#118BDD" stroke-miterlimit="10"/>
<path d="M60.0977 41.5129H58.104V74.3526H60.0977V41.5129Z" stroke="#118BDD" stroke-miterlimit="10"/>
<path d="M58.5938 71.1394V76.2939" stroke="#118BDD" stroke-miterlimit="10"/>
<path d="M59.5962 71.1394V76.2939" stroke="#118BDD" stroke-miterlimit="10"/>
<path d="M58.5938 66.1008V69.6681" stroke="#118BDD" stroke-miterlimit="10"/>
<path d="M59.5962 66.1008V69.6681" stroke="#118BDD" stroke-miterlimit="10"/>
<path d="M58.5938 61.1216V64.6889" stroke="#118BDD" stroke-miterlimit="10"/>
<path d="M59.5962 61.1216V64.6889" stroke="#118BDD" stroke-miterlimit="10"/>
<path d="M58.5938 56.1423V59.7097" stroke="#118BDD" stroke-miterlimit="10"/>
<path d="M59.5962 56.1423V59.7097" stroke="#118BDD" stroke-miterlimit="10"/>
<path d="M58.5938 51.1619V54.7304" stroke="#118BDD" stroke-miterlimit="10"/>
<path d="M59.5962 51.1619V54.7304" stroke="#118BDD" stroke-miterlimit="10"/>
<path d="M58.5938 46.1826V49.7499" stroke="#118BDD" stroke-miterlimit="10"/>
<path d="M59.5962 46.1826V49.7499" stroke="#118BDD" stroke-miterlimit="10"/>
<path d="M58.5938 40.0259V44.7706" stroke="#118BDD" stroke-miterlimit="10"/>
<path d="M59.5962 40.0259V44.7706" stroke="#118BDD" stroke-miterlimit="10"/>
<path d="M70.4854 41.5129H68.4917V74.3526H70.4854V41.5129Z" stroke="#118BDD" stroke-miterlimit="10"/>
<path d="M68.9819 71.1394V76.2939" stroke="#118BDD" stroke-miterlimit="10"/>
<path d="M69.9854 71.1394V76.2939" stroke="#118BDD" stroke-miterlimit="10"/>
<path d="M68.9819 66.1008V69.6681" stroke="#118BDD" stroke-miterlimit="10"/>
<path d="M69.9854 66.1008V69.6681" stroke="#118BDD" stroke-miterlimit="10"/>
<path d="M68.9819 61.1216V64.6889" stroke="#118BDD" stroke-miterlimit="10"/>
<path d="M69.9854 61.1216V64.6889" stroke="#118BDD" stroke-miterlimit="10"/>
<path d="M68.9819 56.1423V59.7097" stroke="#118BDD" stroke-miterlimit="10"/>
<path d="M69.9854 56.1423V59.7097" stroke="#118BDD" stroke-miterlimit="10"/>
<path d="M68.9819 51.1619V54.7304" stroke="#118BDD" stroke-miterlimit="10"/>
<path d="M69.9854 51.1619V54.7304" stroke="#118BDD" stroke-miterlimit="10"/>
<path d="M68.9819 46.1826V49.7499" stroke="#118BDD" stroke-miterlimit="10"/>
<path d="M69.9854 46.1826V49.7499" stroke="#118BDD" stroke-miterlimit="10"/>
<path d="M68.9819 40.0259V44.7706" stroke="#118BDD" stroke-miterlimit="10"/>
<path d="M69.9854 40.0259V44.7706" stroke="#118BDD" stroke-miterlimit="10"/>
<path d="M79.9693 41.5129H77.9756V74.3526H79.9693V41.5129Z" stroke="#118BDD" stroke-miterlimit="10"/>
<path d="M78.4668 71.1394V76.2939" stroke="#118BDD" stroke-miterlimit="10"/>
<path d="M79.4692 71.1394V76.2939" stroke="#118BDD" stroke-miterlimit="10"/>
<path d="M78.4668 66.1008V69.6681" stroke="#118BDD" stroke-miterlimit="10"/>
<path d="M79.4692 66.1008V69.6681" stroke="#118BDD" stroke-miterlimit="10"/>
<path d="M78.4668 61.1216V64.6889" stroke="#118BDD" stroke-miterlimit="10"/>
<path d="M79.4692 61.1216V64.6889" stroke="#118BDD" stroke-miterlimit="10"/>
<path d="M78.4668 56.1423V59.7097" stroke="#118BDD" stroke-miterlimit="10"/>
<path d="M79.4692 56.1423V59.7097" stroke="#118BDD" stroke-miterlimit="10"/>
<path d="M78.4668 51.1619V54.7304" stroke="#118BDD" stroke-miterlimit="10"/>
<path d="M79.4692 51.1619V54.7304" stroke="#118BDD" stroke-miterlimit="10"/>
<path d="M78.4668 46.1826V49.7499" stroke="#118BDD" stroke-miterlimit="10"/>
<path d="M79.4692 46.1826V49.7499" stroke="#118BDD" stroke-miterlimit="10"/>
<path d="M78.4668 40.0259V44.7706" stroke="#118BDD" stroke-miterlimit="10"/>
<path d="M79.4692 40.0259V44.7706" stroke="#118BDD" stroke-miterlimit="10"/>
<path d="M113.508 41.8172L112.526 41.4045L97.1568 75.0933L98.1386 75.5059L113.508 41.8172Z" stroke="#118BDD" stroke-miterlimit="10"/>
<path d="M98.8874 76.2363L97.9453 76.2315L99.0889 73.7251L99.8811 74.0588L98.8874 76.2363Z" stroke="#118BDD" stroke-miterlimit="10"/>
<path d="M113.701 40.0103C113.701 40.0103 112.707 40.9388 112.899 41.5603C113.09 42.1817 113.492 41.5953 114.038 42.0741C114.585 42.5529 114.827 40.7309 113.54 40.6849" stroke="#118BDD" stroke-miterlimit="10"/>
<path d="M112.533 41.4053L113.058 42.9214" stroke="#118BDD" stroke-miterlimit="10"/>
<path d="M112.263 41.947L112.788 43.4632" stroke="#118BDD" stroke-miterlimit="10"/>
<path d="M112.007 42.5078L112.532 44.024" stroke="#118BDD" stroke-miterlimit="10"/>
<path d="M111.757 43.0542L112.282 44.5704" stroke="#118BDD" stroke-miterlimit="10"/>
<path d="M111.417 43.7214L111.943 45.2364" stroke="#118BDD" stroke-miterlimit="10"/>
<path d="M111.161 44.3621L111.686 45.8782" stroke="#118BDD" stroke-miterlimit="10"/>
<path d="M110.888 44.9592L111.413 46.4754" stroke="#118BDD" stroke-miterlimit="10"/>
<path d="M110.625 45.4961L111.15 47.0123" stroke="#118BDD" stroke-miterlimit="10"/>
<path d="M108.398 50.583L108.914 52.0702" stroke="#118BDD" stroke-miterlimit="10"/>
<path d="M108.124 51.116L108.639 52.6031" stroke="#118BDD" stroke-miterlimit="10"/>
<path d="M107.863 51.6697L108.378 53.1568" stroke="#118BDD" stroke-miterlimit="10"/>
<path d="M107.609 52.2087L108.124 53.6959" stroke="#118BDD" stroke-miterlimit="10"/>
<path d="M107.264 52.8665L107.779 54.3536" stroke="#118BDD" stroke-miterlimit="10"/>
<path d="M107.002 53.4985L107.517 54.9857" stroke="#118BDD" stroke-miterlimit="10"/>
<path d="M106.725 54.0874L107.24 55.5746" stroke="#118BDD" stroke-miterlimit="10"/>
<path d="M106.458 54.6169L106.973 56.1041" stroke="#118BDD" stroke-miterlimit="10"/>
<path d="M104.289 59.5234L104.804 61.0106" stroke="#118BDD" stroke-miterlimit="10"/>
<path d="M104.013 60.0579L104.528 61.545" stroke="#118BDD" stroke-miterlimit="10"/>
<path d="M103.752 60.6116L104.269 62.0987" stroke="#118BDD" stroke-miterlimit="10"/>
<path d="M103.5 61.1494L104.015 62.6378" stroke="#118BDD" stroke-miterlimit="10"/>
<path d="M103.185 61.894L103.669 63.2941" stroke="#118BDD" stroke-miterlimit="10"/>
<path d="M102.892 62.4395L103.407 63.9266" stroke="#118BDD" stroke-miterlimit="10"/>
<path d="M102.634 63.0823L103.149 64.5694" stroke="#118BDD" stroke-miterlimit="10"/>
<path d="M102.367 63.6106L102.882 65.0977" stroke="#118BDD" stroke-miterlimit="10"/>
<path d="M99.7651 69.4299L100.28 70.9171" stroke="#118BDD" stroke-miterlimit="10"/>
<path d="M99.4902 69.9644L100.005 71.4515" stroke="#118BDD" stroke-miterlimit="10"/>
<path d="M99.2295 70.5168L99.7446 72.004" stroke="#118BDD" stroke-miterlimit="10"/>
<path d="M98.9766 71.0559L99.4917 72.5431" stroke="#118BDD" stroke-miterlimit="10"/>
<path d="M98.6606 71.7993L99.1468 73.2006" stroke="#118BDD" stroke-miterlimit="10"/>
<path d="M98.3696 72.3457L98.8847 73.8329" stroke="#118BDD" stroke-miterlimit="10"/>
<path d="M98.1113 72.9878L98.6264 74.4749" stroke="#118BDD" stroke-miterlimit="10"/>
<path d="M97.8442 73.5173L98.3593 75.0045" stroke="#118BDD" stroke-miterlimit="10"/>
<path d="M126.563 42.8391V44.0022" stroke="#118BDD" stroke-miterlimit="10"/>
<path d="M124.84 43.6829H124.066V49.3717H124.84V43.6829Z" stroke="#118BDD" stroke-miterlimit="10"/>
<path d="M129.051 43.6829H128.276V49.3717H129.051V43.6829Z" stroke="#118BDD" stroke-miterlimit="10"/>
<path d="M124.066 49.3728V72.0061H129.104V49.3728H128.276C128.276 49.3728 127.801 50.0824 127.175 50.0824C126.548 50.0824 126.173 49.3728 125.847 49.3728C125.521 49.3728 124.066 49.3728 124.066 49.3728Z" stroke="#118BDD" stroke-miterlimit="10"/>
<path d="M126.585 45.252V52.0118" stroke="#118BDD" stroke-miterlimit="10"/>
<path d="M126.585 53.4768V54.6714" stroke="#118BDD" stroke-miterlimit="10"/>
<path d="M126.585 55.8848V62.6435" stroke="#118BDD" stroke-miterlimit="10"/>
<path d="M126.585 64.1462V65.0724" stroke="#118BDD" stroke-miterlimit="10"/>
<path d="M126.585 66.512V72.0062" stroke="#118BDD" stroke-miterlimit="10"/>
<path d="M129.104 76.2854V70.2363H129.923L132.407 75.2676V76.2854H129.104Z" stroke="#118BDD" stroke-miterlimit="10"/>
<path d="M132.855 77.4581V76.2855C132.855 76.2855 133.381 75.6992 133.381 75.2519C133.381 74.8046 133.117 74.419 133.117 74.0177C133.117 73.6163 133.509 72.6191 133.509 72.0062C133.509 71.3945 133.182 70.8227 133.182 70.3597C133.182 69.8967 134.184 67.9529 134.344 67.0728C134.504 66.1928 134.988 64.527 135.116 63.8633C135.245 63.1997 136.178 60.6538 136.178 60.1751C136.178 59.6964 136.323 59.3108 136.418 58.8019C136.515 58.293 136.934 57.2739 136.949 56.5945C136.965 55.9151 137.431 54.9432 137.415 54.3872C137.398 53.8311 138.025 52.3502 138.187 51.9175C138.348 51.4847 139.119 50.0353 139.135 49.3716C139.151 48.708 139.135 47.0881 139.135 47.0881C139.135 47.0881 140.936 45.1286 140.984 44.6656C141.032 44.2026 141.209 43.8472 141.209 43.8472L142.495 42.5308V77.4581H132.855Z" stroke="#118BDD" stroke-miterlimit="10"/>
<path d="M142.497 72.2527L147.261 62.6436V53.7754L140.487 40.0103" stroke="#118BDD" stroke-miterlimit="10"/>
<path d="M139.115 40.0103L141.172 43.9354" stroke="#118BDD" stroke-miterlimit="10"/>
<path d="M139.136 47.0881V40.0103" stroke="#118BDD" stroke-miterlimit="10"/>
<path d="M142.497 42.5312V40.0103" stroke="#118BDD" stroke-miterlimit="10"/>
</g>
<defs>
<clipPath id="clip0_428_15363">
<rect width="150.126" height="79.0588" fill="white" transform="translate(0.0722656 0.280273)"/>
</clipPath>
</defs>
</svg>
